# Exported from Wings 3D 1.5.4
mtllib box.mtl
o Cube1
#8 vertices, 6 faces
v -0.25000000 -0.25000000 -0.25000000
v -0.25000000 -0.25000000 0.25000000
v -0.25000000 0.25000000 -0.25000000
v -0.25000000 0.25000000 0.25000000
v 0.25000000 -0.25000000 -0.25000000
v 0.25000000 -0.25000000 0.25000000
v 0.25000000 0.25000000 -0.25000000
v 0.25000000 0.25000000 0.25000000
vt 0.0000000e+0 0.33333333
vt 0.0000000e+0 0.66666667
vt 0.0000000e+0 1.00000000
vt 2.7755576e-17 0.33333333
vt 2.7755576e-17 0.66666667
vt 5.5511151e-17 0.0000000e+0
vt 0.33333333 0.33333333
vt 0.33333333 0.33333333
vt 0.33333333 0.66666667
vt 0.33333333 1.00000000
vt 0.33333333 5.5511151e-17
vt 0.33333333 0.33333333
vt 0.33333333 0.66666667
vt 0.33333333 0.0000000e+0
vt 0.33333333 0.33333333
vt 0.66666667 0.33333333
vt 0.66666667 0.66666667
vt 0.66666667 0.66666667
vt 0.66666667 1.00000000
vt 0.66666667 5.5511151e-17
vt 0.66666667 0.33333333
vn -0.57735027 -0.57735027 -0.57735027
vn -0.57735027 -0.57735027 0.57735027
vn -0.57735027 0.57735027 -0.57735027
vn -0.57735027 0.57735027 0.57735027
vn 0.57735027 -0.57735027 -0.57735027
vn 0.57735027 -0.57735027 0.57735027
vn 0.57735027 0.57735027 -0.57735027
vn 0.57735027 0.57735027 0.57735027
g Cube1_Cube1_auv
usemtl Cube1_auv
s 1
f 1/17/1 5/13/5 6/12/6 2/16/2
f 2/20/2 4/21/4 3/15/3 1/14/1
f 2/4/2 6/8/6 8/9/8 4/2/4
f 3/10/3 7/3/7 5/5/5 1/9/1
f 4/6/4 8/11/8 7/7/7 3/1/3
f 5/18/5 7/19/7 8/10/8 6/9/6
