# Blender v2.76 (sub 0) OBJ File: 'tiles3.blend'
# www.blender.org
o Cube_Cube.004
v -0.208284 0.351716 0.311127
v -0.248284 0.391716 0.254558
v 0.191716 -0.048284 -0.254559
v 0.151716 -0.008284 -0.311127
v -0.151716 0.408284 0.311127
v -0.191716 0.448284 0.254559
v 0.248284 0.008284 -0.254559
v 0.208284 0.048284 -0.311127
v 0.282843 0.482843 0.056569
v 0.242843 0.522843 0.000000
v -0.282843 -0.082843 0.056569
v -0.322843 -0.042843 -0.000000
v 0.322843 0.442843 0.000000
v 0.282843 0.482843 -0.056569
v -0.242843 -0.122843 -0.000000
v -0.282843 -0.082843 -0.056569
v 0.191716 -0.048284 0.254558
v 0.151716 -0.008284 0.311127
v -0.208284 0.351716 -0.311127
v -0.248284 0.391716 -0.254559
v 0.248284 0.008284 0.254559
v 0.208284 0.048284 0.311127
v -0.151716 0.408284 -0.311127
v -0.191716 0.448284 -0.254558
vt 0.082679 0.323811
vt 0.115008 0.323811
vt 0.115008 0.356140
vt 0.082679 0.356140
vn -0.707100 -0.707100 -0.000000
vn 0.500000 -0.500000 -0.707100
vn 0.707100 0.707100 0.000000
vn -0.500000 0.500000 0.707100
vn 0.500000 -0.500000 0.707100
vn -0.500000 0.500000 -0.707100
s off
f 2/1/1 4/2/1 3/3/1 1/4/1
f 4/1/2 8/2/2 7/3/2 3/4/2
f 8/1/3 6/2/3 5/3/3 7/4/3
f 6/1/4 2/2/4 1/3/4 5/4/4
f 1/1/5 3/2/5 7/3/5 5/4/5
f 6/1/6 8/2/6 4/3/6 2/4/6
f 10/1/4 12/2/4 11/3/4 9/4/4
f 12/1/1 16/2/1 15/3/1 11/4/1
f 16/1/2 14/2/2 13/3/2 15/4/2
f 14/1/3 10/2/3 9/3/3 13/4/3
f 9/1/5 11/2/5 15/3/5 13/4/5
f 14/1/6 16/2/6 12/3/6 10/4/6
f 18/1/1 20/2/1 19/3/1 17/4/1
f 20/1/6 24/2/6 23/3/6 19/4/6
f 24/1/3 22/2/3 21/3/3 23/4/3
f 22/1/5 18/2/5 17/3/5 21/4/5
f 17/1/2 19/2/2 23/3/2 21/4/2
f 22/1/4 24/2/4 20/3/4 18/4/4
