# Blender v2.76 (sub 0) OBJ File: 'tiles_wall.blend'
# www.blender.org
o wall_t_wall_edgte.003
v -0.100000 0.000000 0.100000
v -0.100000 0.360000 0.100000
v -0.100000 0.000000 -0.500000
v -0.100000 0.360000 -0.500000
v 0.100000 0.000000 0.100000
v 0.100000 0.360000 0.100000
v 0.100000 0.000000 -0.500000
v 0.100000 0.360000 -0.500000
v -0.110000 0.210000 -0.090000
v -0.110000 0.270000 -0.090000
v -0.110000 0.210000 -0.190000
v -0.110000 0.270000 -0.190000
v -0.050000 0.210000 -0.090000
v -0.050000 0.270000 -0.090000
v -0.050000 0.210000 -0.190000
v -0.050000 0.270000 -0.190000
v 0.010000 0.270000 -0.510000
v 0.010000 0.210000 -0.510000
v 0.010000 0.270000 -0.450000
v 0.010000 0.210000 -0.450000
v -0.110000 0.270000 -0.510000
v -0.110000 0.210000 -0.510000
v -0.110000 0.270000 -0.450000
v -0.110000 0.210000 -0.450000
v -0.110000 0.070000 -0.370000
v -0.110000 0.130000 -0.370000
v -0.110000 0.070000 -0.510000
v -0.110000 0.130000 -0.510000
v -0.050000 0.070000 -0.370000
v -0.050000 0.130000 -0.370000
v -0.050000 0.070000 -0.510000
v -0.050000 0.130000 -0.510000
v -0.110000 0.140000 -0.270000
v -0.110000 0.200000 -0.270000
v -0.110000 0.140000 -0.450000
v -0.110000 0.200000 -0.450000
v -0.050000 0.140000 -0.270000
v -0.050000 0.200000 -0.270000
v -0.050000 0.140000 -0.450000
v -0.050000 0.200000 -0.450000
v 0.110000 0.210000 -0.410000
v 0.110000 0.270000 -0.410000
v 0.110000 0.210000 -0.230000
v 0.110000 0.270000 -0.230000
v 0.050000 0.210000 -0.410000
v 0.050000 0.270000 -0.410000
v 0.050000 0.210000 -0.230000
v 0.050000 0.270000 -0.230000
v 0.110000 0.140000 -0.340000
v 0.110000 0.200000 -0.340000
v 0.110000 0.140000 -0.140000
v 0.110000 0.200000 -0.140000
v 0.050000 0.140000 -0.340000
v 0.050000 0.200000 -0.340000
v 0.050000 0.140000 -0.140000
v 0.050000 0.200000 -0.140000
v 0.110000 0.280000 -0.510000
v 0.110000 0.340000 -0.510000
v 0.110000 0.280000 -0.380000
v 0.110000 0.340000 -0.380000
v 0.050000 0.280000 -0.510000
v 0.050000 0.340000 -0.510000
v 0.050000 0.280000 -0.380000
v 0.050000 0.340000 -0.380000
v 0.110000 0.070000 -0.510000
v 0.110000 0.130000 -0.510000
v 0.110000 0.070000 -0.400000
v 0.110000 0.130000 -0.400000
v 0.050000 0.070000 -0.510000
v 0.050000 0.130000 -0.510000
v 0.050000 0.070000 -0.400000
v 0.050000 0.130000 -0.400000
v 0.110000 0.210000 -0.170000
v 0.110000 0.270000 -0.170000
v 0.110000 0.210000 -0.090000
v 0.110000 0.270000 -0.090000
v 0.050000 0.210000 -0.170000
v 0.050000 0.270000 -0.170000
v 0.050000 0.210000 -0.090000
v 0.050000 0.270000 -0.090000
v -0.510000 0.140000 0.110000
v -0.510000 0.200000 0.110000
v -0.510000 0.140000 0.020000
v -0.510000 0.200000 0.020000
v -0.450000 0.140000 0.110000
v -0.450000 0.200000 0.110000
v -0.450000 0.140000 0.020000
v -0.450000 0.200000 0.020000
v 0.110000 0.140000 0.050000
v 0.110000 0.200000 0.050000
v 0.110000 0.140000 0.110000
v 0.110000 0.200000 0.110000
v -0.040000 0.140000 0.050000
v -0.040000 0.200000 0.050000
v -0.040000 0.140000 0.110000
v -0.040000 0.200000 0.110000
v 0.020000 0.210000 0.050000
v 0.020000 0.270000 0.050000
v 0.020000 0.210000 0.110000
v 0.020000 0.270000 0.110000
v -0.110000 0.210000 0.050000
v -0.110000 0.270000 0.050000
v -0.110000 0.210000 0.110000
v -0.110000 0.270000 0.110000
v 0.110000 0.200000 -0.510000
v 0.110000 0.140000 -0.510000
v 0.110000 0.200000 -0.450000
v 0.110000 0.140000 -0.450000
v -0.020000 0.200000 -0.510000
v -0.020000 0.140000 -0.510000
v -0.020000 0.200000 -0.450000
v -0.020000 0.140000 -0.450000
v -0.100000 0.360000 -0.100000
v -0.100000 0.000000 -0.100000
v 0.100000 0.360000 -0.100000
v 0.100000 0.000000 -0.100000
v 0.500000 0.360000 -0.100000
v 0.500000 0.360000 0.100000
v 0.500000 0.000000 0.100000
v 0.500000 0.000000 -0.100000
v -0.500000 0.360000 0.100000
v -0.500000 0.360000 -0.100000
v -0.500000 0.000000 -0.100000
v -0.500000 0.000000 0.100000
v 0.510000 0.070000 -0.050000
v 0.510000 0.130000 -0.050000
v 0.510000 0.070000 0.110000
v 0.510000 0.130000 0.110000
v 0.450000 0.070000 -0.050000
v 0.450000 0.130000 -0.050000
v 0.450000 0.070000 0.110000
v 0.450000 0.130000 0.110000
v 0.360000 0.140000 0.050000
v 0.360000 0.200000 0.050000
v 0.510000 0.140000 0.050000
v 0.510000 0.200000 0.050000
v 0.360000 0.140000 0.110000
v 0.360000 0.200000 0.110000
v 0.510000 0.140000 0.110000
v 0.510000 0.200000 0.110000
v 0.290000 0.070000 0.050000
v 0.290000 0.130000 0.050000
v 0.440000 0.070000 0.050000
v 0.440000 0.130000 0.050000
v 0.290000 0.070000 0.110000
v 0.290000 0.130000 0.110000
v 0.440000 0.070000 0.110000
v 0.440000 0.130000 0.110000
v 0.190000 0.270000 0.050000
v 0.190000 0.210000 0.050000
v 0.380000 0.270000 0.050000
v 0.380000 0.210000 0.050000
v 0.190000 0.270000 0.110000
v 0.190000 0.210000 0.110000
v 0.380000 0.270000 0.110000
v 0.380000 0.210000 0.110000
v 0.090000 0.280000 0.050000
v 0.090000 0.340000 0.050000
v 0.240000 0.280000 0.050000
v 0.240000 0.340000 0.050000
v 0.090000 0.280000 0.110000
v 0.090000 0.340000 0.110000
v 0.240000 0.280000 0.110000
v 0.240000 0.340000 0.110000
v 0.360000 0.280000 -0.110000
v 0.360000 0.340000 -0.110000
v 0.510000 0.280000 -0.110000
v 0.510000 0.340000 -0.110000
v 0.360000 0.280000 -0.050000
v 0.360000 0.340000 -0.050000
v 0.510000 0.280000 -0.050000
v 0.510000 0.340000 -0.050000
v 0.200000 0.270000 -0.110000
v 0.200000 0.210000 -0.110000
v 0.390000 0.270000 -0.110000
v 0.390000 0.210000 -0.110000
v 0.200000 0.270000 -0.050000
v 0.200000 0.210000 -0.050000
v 0.390000 0.270000 -0.050000
v 0.390000 0.210000 -0.050000
v 0.260000 0.200000 -0.110000
v 0.260000 0.140000 -0.110000
v 0.420000 0.200000 -0.110000
v 0.420000 0.140000 -0.110000
v 0.260000 0.200000 -0.050000
v 0.260000 0.140000 -0.050000
v 0.420000 0.200000 -0.050000
v 0.420000 0.140000 -0.050000
v -0.300000 0.130000 -0.110000
v -0.300000 0.070000 -0.110000
v -0.160000 0.130000 -0.110000
v -0.160000 0.070000 -0.110000
v -0.300000 0.130000 -0.050000
v -0.300000 0.070000 -0.050000
v -0.160000 0.130000 -0.050000
v -0.160000 0.070000 -0.050000
v 0.170000 0.070000 -0.110000
v 0.170000 0.130000 -0.110000
v 0.320000 0.070000 -0.110000
v 0.320000 0.130000 -0.110000
v 0.170000 0.070000 -0.050000
v 0.170000 0.130000 -0.050000
v 0.320000 0.070000 -0.050000
v 0.320000 0.130000 -0.050000
v -0.440000 0.340000 -0.110000
v -0.440000 0.280000 -0.110000
v -0.300000 0.340000 -0.110000
v -0.300000 0.280000 -0.110000
v -0.440000 0.340000 -0.050000
v -0.440000 0.280000 -0.050000
v -0.300000 0.340000 -0.050000
v -0.300000 0.280000 -0.050000
v -0.250000 0.270000 -0.110000
v -0.250000 0.210000 -0.110000
v -0.180000 0.270000 -0.110000
v -0.180000 0.210000 -0.110000
v -0.250000 0.270000 -0.050000
v -0.250000 0.210000 -0.050000
v -0.180000 0.270000 -0.050000
v -0.180000 0.210000 -0.050000
v -0.510000 0.210000 -0.110000
v -0.510000 0.270000 -0.110000
v -0.400000 0.210000 -0.110000
v -0.400000 0.270000 -0.110000
v -0.510000 0.210000 -0.050000
v -0.510000 0.270000 -0.050000
v -0.400000 0.210000 -0.050000
v -0.400000 0.270000 -0.050000
v -0.510000 0.070000 -0.110000
v -0.510000 0.130000 -0.110000
v -0.410000 0.070000 -0.110000
v -0.410000 0.130000 -0.110000
v -0.510000 0.070000 -0.050000
v -0.510000 0.130000 -0.050000
v -0.410000 0.070000 -0.050000
v -0.410000 0.130000 -0.050000
v -0.440000 0.130000 0.050000
v -0.440000 0.070000 0.050000
v -0.300000 0.130000 0.050000
v -0.300000 0.070000 0.050000
v -0.440000 0.130000 0.110000
v -0.440000 0.070000 0.110000
v -0.300000 0.130000 0.110000
v -0.300000 0.070000 0.110000
v -0.380000 0.210000 0.050000
v -0.380000 0.270000 0.050000
v -0.230000 0.210000 0.050000
v -0.230000 0.270000 0.050000
v -0.380000 0.210000 0.110000
v -0.380000 0.270000 0.110000
v -0.230000 0.210000 0.110000
v -0.230000 0.270000 0.110000
v -0.290000 0.070000 0.050000
v -0.290000 0.130000 0.050000
v -0.180000 0.070000 0.050000
v -0.180000 0.130000 0.050000
v -0.290000 0.070000 0.110000
v -0.290000 0.130000 0.110000
v -0.180000 0.070000 0.110000
v -0.180000 0.130000 0.110000
v -0.510000 0.340000 0.050000
v -0.510000 0.280000 0.050000
v -0.370000 0.340000 0.050000
v -0.370000 0.280000 0.050000
v -0.510000 0.340000 0.110000
v -0.510000 0.280000 0.110000
v -0.370000 0.340000 0.110000
v -0.370000 0.280000 0.110000
vt 0.096708 0.470143
vt 0.099510 0.470550
vt 0.113786 0.477952
vt 0.101450 0.477944
vt 0.096790 0.467429
vt 0.099368 0.467806
vt 0.091442 0.416271
vt 0.090705 0.422371
vt 0.087204 0.422728
vt 0.087941 0.416628
vt 0.094622 0.427719
vt 0.084024 0.426237
vt 0.094622 0.412762
vt 0.084024 0.411281
vt 0.109881 0.399324
vt 0.110373 0.396565
vt 0.112845 0.394160
vt 0.112845 0.403142
vt 0.107732 0.399491
vt 0.108224 0.396732
vt 0.076402 0.423637
vt 0.077153 0.416698
vt 0.080813 0.416308
vt 0.080062 0.423247
vt 0.105260 0.401897
vt 0.105260 0.392915
vt 0.073243 0.411281
vt 0.083971 0.412730
vt 0.073243 0.427216
vt 0.083971 0.428665
vt 0.104512 0.334156
vt 0.109086 0.334711
vt 0.109354 0.337336
vt 0.104779 0.336782
vt 0.113098 0.331775
vt 0.111984 0.339722
vt 0.101881 0.331771
vt 0.100768 0.339718
vt 0.086737 0.355800
vt 0.080642 0.355303
vt 0.080347 0.352720
vt 0.086441 0.353217
vt 0.077062 0.357797
vt 0.077955 0.350723
vt 0.089344 0.406601
vt 0.078059 0.405814
vt 0.077563 0.401587
vt 0.088848 0.402373
vt 0.089128 0.357797
vt 0.090022 0.350723
vt 0.072372 0.409704
vt 0.073750 0.398484
vt 0.093158 0.409704
vt 0.094536 0.398484
vt 0.090266 0.407442
vt 0.086361 0.406971
vt 0.086133 0.404730
vt 0.090038 0.405201
vt 0.082939 0.409478
vt 0.083887 0.402694
vt 0.098664 0.413661
vt 0.096418 0.411626
vt 0.096190 0.409385
vt 0.099612 0.406878
vt 0.093460 0.402694
vt 0.092512 0.409478
vt 0.117138 0.458649
vt 0.109353 0.345324
vt 0.104778 0.344772
vt 0.104510 0.342146
vt 0.109085 0.342699
vt 0.100768 0.347709
vt 0.101879 0.339762
vt 0.111984 0.347709
vt 0.113095 0.339762
vt 0.086334 0.346466
vt 0.097619 0.347256
vt 0.098114 0.351484
vt 0.086829 0.350694
vt 0.103308 0.343369
vt 0.101926 0.354588
vt 0.082522 0.343362
vt 0.081140 0.354581
vt 0.076777 0.477930
vt 0.074280 0.458650
vt 0.091633 0.466674
vt 0.091103 0.469330
vt 0.084971 0.362676
vt 0.080530 0.362195
vt 0.080280 0.359852
vt 0.084722 0.360333
vt 0.077062 0.364698
vt 0.077990 0.357831
vt 0.087262 0.364698
vt 0.088189 0.357831
vt 0.077097 0.415829
vt 0.072655 0.415348
vt 0.072406 0.413005
vt 0.076847 0.413486
vt 0.069187 0.417851
vt 0.070115 0.410983
vt 0.079387 0.417851
vt 0.080315 0.410984
vt 0.117755 0.346171
vt 0.118247 0.343412
vt 0.120719 0.341007
vt 0.120719 0.349989
vt 0.115606 0.346338
vt 0.116098 0.343579
vt 0.113135 0.348744
vt 0.102852 0.458649
vt 0.094211 0.467051
vt 0.088566 0.458650
vt 0.093906 0.469737
vt 0.089114 0.477937
vt 0.084866 0.346123
vt 0.084129 0.352224
vt 0.080628 0.352581
vt 0.081365 0.346480
vt 0.088045 0.357571
vt 0.077448 0.356089
vt 0.088045 0.342614
vt 0.077448 0.341133
vt 0.107177 0.350713
vt 0.104418 0.350221
vt 0.102013 0.347749
vt 0.110995 0.347749
vt 0.107344 0.352861
vt 0.104585 0.352369
vt 0.109750 0.355333
vt 0.100768 0.355333
vt 0.095379 0.344416
vt 0.094642 0.350516
vt 0.091141 0.350874
vt 0.091878 0.344773
vt 0.098559 0.355864
vt 0.087961 0.354382
vt 0.098559 0.340907
vt 0.087961 0.339426
vn -1.000000 0.000000 0.000000
vn 0.000000 1.000000 0.000000
vn 0.000000 0.000000 -1.000000
vn 0.000000 0.000000 1.000000
vn 0.000000 -1.000000 0.000000
vn 1.000000 0.000000 0.000000
s off
f 113/1/1 4/2/1 3/3/1 114/4/1
f 113/1/2 115/5/2 8/6/2 4/2/2
f 10/7/1 12/8/1 11/9/1 9/10/1
f 12/8/3 16/11/3 15/12/3 11/9/3
f 14/13/4 10/7/4 9/10/4 13/14/4
f 9/10/5 11/9/5 15/12/5 13/14/5
f 14/13/2 16/11/2 12/8/2 10/7/2
f 24/15/5 22/16/5 18/17/5 20/18/5
f 23/19/1 21/20/1 22/16/1 24/15/1
f 26/21/1 28/22/1 27/23/1 25/24/1
f 19/25/2 17/26/2 21/20/2 23/19/2
f 19/25/4 23/19/4 24/15/4 20/18/4
f 21/20/3 17/26/3 18/17/3 22/16/3
f 28/22/3 32/27/3 31/28/3 27/23/3
f 30/29/4 26/21/4 25/24/4 29/30/4
f 25/24/5 27/23/5 31/28/5 29/30/5
f 30/29/2 32/27/2 28/22/2 26/21/2
f 34/31/1 36/32/1 35/33/1 33/34/1
f 36/32/3 40/35/3 39/36/3 35/33/3
f 38/37/4 34/31/4 33/34/4 37/38/4
f 33/34/5 35/33/5 39/36/5 37/38/5
f 38/37/2 40/35/2 36/32/2 34/31/2
f 42/39/6 44/40/6 43/41/6 41/42/6
f 44/40/4 48/43/4 47/44/4 43/41/4
f 50/45/6 52/46/6 51/47/6 49/48/6
f 46/49/3 42/39/3 41/42/3 45/50/3
f 41/42/5 43/41/5 47/44/5 45/50/5
f 46/49/2 48/43/2 44/40/2 42/39/2
f 52/46/4 56/51/4 55/52/4 51/47/4
f 54/53/3 50/45/3 49/48/3 53/54/3
f 49/48/5 51/47/5 55/52/5 53/54/5
f 54/53/2 56/51/2 52/46/2 50/45/2
f 58/55/6 60/56/6 59/57/6 57/58/6
f 60/56/4 64/59/4 63/60/4 59/57/4
f 62/61/3 58/62/3 57/63/3 61/64/3
f 57/58/5 59/57/5 63/60/5 61/65/5
f 62/66/2 64/59/2 60/56/2 58/55/2
f 3/3/3 4/2/3 8/6/3 7/67/3
f 66/45/6 68/46/6 67/47/6 65/48/6
f 68/46/4 72/51/4 71/52/4 67/47/4
f 70/53/3 66/45/3 65/48/3 69/54/3
f 65/48/5 67/47/5 71/52/5 69/54/5
f 70/53/2 72/51/2 68/46/2 66/45/2
f 74/68/6 76/69/6 75/70/6 73/71/6
f 76/69/4 80/72/4 79/73/4 75/70/4
f 78/74/3 74/68/3 73/71/3 77/75/3
f 73/71/5 75/70/5 79/73/5 77/75/5
f 78/74/2 80/72/2 76/69/2 74/68/2
f 82/76/1 84/77/1 83/78/1 81/79/1
f 84/77/3 88/80/3 87/81/3 83/78/3
f 86/82/4 82/76/4 81/79/4 85/83/4
f 81/79/5 83/78/5 87/81/5 85/83/5
f 86/82/2 88/80/2 84/77/2 82/76/2
f 1/84/4 5/85/4 6/86/4 2/87/4
f 90/88/6 92/89/6 91/90/6 89/91/6
f 92/89/4 96/92/4 95/93/4 91/90/4
f 94/94/3 90/88/3 89/91/3 93/95/3
f 89/91/5 91/90/5 95/93/5 93/95/5
f 94/94/2 96/92/2 92/89/2 90/88/2
f 98/96/6 100/97/6 99/98/6 97/99/6
f 100/97/4 104/100/4 103/101/4 99/98/4
f 102/102/3 98/96/3 97/99/3 101/103/3
f 97/99/5 99/98/5 103/101/5 101/103/5
f 102/102/2 104/100/2 100/97/2 98/96/2
f 112/104/5 110/105/5 106/106/5 108/107/5
f 111/108/1 109/109/1 110/105/1 112/104/1
f 107/110/2 105/75/2 109/109/2 111/108/2
f 107/110/4 111/108/4 112/104/4 108/107/4
f 109/109/3 105/75/3 106/106/3 110/105/3
f 108/106/6 106/75/6 105/110/6 107/107/6
f 71/52/1 72/51/1 70/53/1 69/54/1
f 63/60/1 64/59/1 62/66/1 61/65/1
f 47/44/1 48/43/1 46/49/1 45/50/1
f 55/52/1 56/51/1 54/53/1 53/54/1
f 79/73/1 80/72/1 78/74/1 77/75/1
f 103/101/1 104/100/1 102/102/1 101/103/1
f 95/93/1 96/92/1 94/94/1 93/95/1
f 15/12/6 16/11/6 14/13/6 13/14/6
f 87/81/6 88/80/6 86/82/6 85/83/6
f 20/17/6 18/26/6 17/25/6 19/18/6
f 39/36/6 40/35/6 38/37/6 37/38/6
f 31/28/6 32/27/6 30/29/6 29/30/6
f 8/6/6 115/5/6 116/111/6 7/67/6
f 113/1/3 114/4/3 123/4/3 122/1/3
f 117/5/6 118/112/6 119/113/6 120/111/6
f 116/111/3 115/5/3 117/5/3 120/111/3
f 121/114/1 122/1/1 123/4/1 124/115/1
f 126/68/6 128/69/6 127/70/6 125/71/6
f 128/69/4 132/72/4 131/73/4 127/70/4
f 130/74/3 126/68/3 125/71/3 129/75/3
f 125/71/5 127/70/5 131/73/5 129/75/5
f 130/74/2 132/72/2 128/69/2 126/68/2
f 131/73/1 132/72/1 130/74/1 129/75/1
f 134/116/3 136/117/3 135/118/3 133/119/3
f 136/117/6 140/120/6 139/121/6 135/118/6
f 138/122/1 134/116/1 133/119/1 137/123/1
f 133/119/5 135/118/5 139/121/5 137/123/5
f 138/122/2 140/120/2 136/117/2 134/116/2
f 139/121/4 140/120/4 138/122/4 137/123/4
f 142/7/3 144/8/3 143/9/3 141/10/3
f 144/8/6 148/11/6 147/12/6 143/9/6
f 146/13/1 142/7/1 141/10/1 145/14/1
f 141/10/5 143/9/5 147/12/5 145/14/5
f 146/13/2 148/11/2 144/8/2 142/7/2
f 147/12/4 148/11/4 146/13/4 145/14/4
f 156/124/5 154/125/5 150/126/5 152/127/5
f 155/128/4 153/129/4 154/125/4 156/124/4
f 151/130/2 149/131/2 153/129/2 155/128/2
f 151/130/6 155/128/6 156/124/6 152/127/6
f 153/129/1 149/131/1 150/126/1 154/125/1
f 152/126/3 150/131/3 149/130/3 151/127/3
f 158/7/3 160/8/3 159/9/3 157/10/3
f 160/8/6 164/11/6 163/12/6 159/9/6
f 162/13/1 158/7/1 157/10/1 161/14/1
f 157/10/5 159/9/5 163/12/5 161/14/5
f 162/13/2 164/11/2 160/8/2 158/7/2
f 163/12/4 164/11/4 162/13/4 161/14/4
f 166/132/3 168/133/3 167/134/3 165/135/3
f 168/133/6 172/136/6 171/137/6 167/134/6
f 170/138/1 166/132/1 165/135/1 169/139/1
f 165/135/5 167/134/5 171/137/5 169/139/5
f 170/138/2 172/136/2 168/133/2 166/132/2
f 171/137/4 172/136/4 170/138/4 169/139/4
f 180/124/5 178/125/5 174/126/5 176/127/5
f 179/128/4 177/129/4 178/125/4 180/124/4
f 175/130/2 173/131/2 177/129/2 179/128/2
f 175/130/6 179/128/6 180/124/6 176/127/6
f 177/129/1 173/131/1 174/126/1 178/125/1
f 176/126/3 174/131/3 173/130/3 175/127/3
f 188/124/5 186/125/5 182/126/5 184/127/5
f 187/128/4 185/129/4 186/125/4 188/124/4
f 183/130/2 181/131/2 185/129/2 187/128/2
f 183/130/6 187/128/6 188/124/6 184/127/6
f 185/129/1 181/131/1 182/126/1 186/125/1
f 184/126/3 182/131/3 181/130/3 183/127/3
f 196/124/5 194/125/5 190/126/5 192/127/5
f 195/128/4 193/129/4 194/125/4 196/124/4
f 191/130/2 189/131/2 193/129/2 195/128/2
f 191/130/6 195/128/6 196/124/6 192/127/6
f 193/129/1 189/131/1 190/126/1 194/125/1
f 192/126/3 190/131/3 189/130/3 191/127/3
f 198/7/3 200/8/3 199/9/3 197/10/3
f 200/8/6 204/11/6 203/12/6 199/9/6
f 202/13/1 198/7/1 197/10/1 201/14/1
f 197/10/5 199/9/5 203/12/5 201/14/5
f 202/13/2 204/11/2 200/8/2 198/7/2
f 203/12/4 204/11/4 202/13/4 201/14/4
f 212/124/5 210/125/5 206/126/5 208/127/5
f 211/128/4 209/129/4 210/125/4 212/124/4
f 207/130/2 205/131/2 209/129/2 211/128/2
f 207/130/6 211/128/6 212/124/6 208/127/6
f 209/129/1 205/131/1 206/126/1 210/125/1
f 208/126/3 206/131/3 205/130/3 207/127/3
f 220/124/5 218/125/5 214/126/5 216/127/5
f 219/128/4 217/129/4 218/125/4 220/124/4
f 215/130/2 213/131/2 217/129/2 219/128/2
f 215/130/6 219/128/6 220/124/6 216/127/6
f 217/129/1 213/131/1 214/126/1 218/125/1
f 216/126/3 214/131/3 213/130/3 215/127/3
f 222/7/3 224/8/3 223/9/3 221/10/3
f 224/8/6 228/11/6 227/12/6 223/9/6
f 226/13/1 222/7/1 221/10/1 225/14/1
f 221/10/5 223/9/5 227/12/5 225/14/5
f 226/13/2 228/11/2 224/8/2 222/7/2
f 227/12/4 228/11/4 226/13/4 225/14/4
f 230/7/3 232/8/3 231/9/3 229/10/3
f 232/8/6 236/11/6 235/12/6 231/9/6
f 234/13/1 230/7/1 229/10/1 233/14/1
f 229/10/5 231/9/5 235/12/5 233/14/5
f 234/13/2 236/11/2 232/8/2 230/7/2
f 235/12/4 236/11/4 234/13/4 233/14/4
f 244/124/5 242/125/5 238/126/5 240/127/5
f 243/128/4 241/129/4 242/125/4 244/124/4
f 239/130/2 237/131/2 241/129/2 243/128/2
f 239/130/6 243/128/6 244/124/6 240/127/6
f 241/129/1 237/131/1 238/126/1 242/125/1
f 240/126/3 238/131/3 237/130/3 239/127/3
f 246/7/3 248/8/3 247/9/3 245/10/3
f 248/8/6 252/11/6 251/12/6 247/9/6
f 250/13/1 246/7/1 245/10/1 249/14/1
f 245/10/5 247/9/5 251/12/5 249/14/5
f 250/13/2 252/11/2 248/8/2 246/7/2
f 251/12/4 252/11/4 250/13/4 249/14/4
f 254/7/3 256/8/3 255/9/3 253/10/3
f 256/8/6 260/11/6 259/12/6 255/9/6
f 258/13/1 254/7/1 253/10/1 257/14/1
f 253/10/5 255/9/5 259/12/5 257/14/5
f 258/13/2 260/11/2 256/8/2 254/7/2
f 259/12/4 260/11/4 258/13/4 257/14/4
f 268/124/5 266/125/5 262/126/5 264/127/5
f 267/128/4 265/129/4 266/125/4 268/124/4
f 263/130/2 261/131/2 265/129/2 267/128/2
f 263/130/6 267/128/6 268/124/6 264/127/6
f 265/129/1 261/131/1 262/126/1 266/125/1
f 264/126/3 262/131/3 261/130/3 263/127/3
f 2/114/2 6/112/2 115/5/2 113/1/2
f 6/112/4 5/113/4 119/113/4 118/112/4
f 115/5/2 6/112/2 118/112/2 117/5/2
f 2/114/2 113/1/2 122/1/2 121/114/2
f 1/115/4 2/114/4 121/114/4 124/115/4
