# Exported from Wings 3D 1.5.4
mtllib spider_body.mtl
o Cube1
#8 vertices, 6 faces
v -0.67400000 -0.41400000 -1.00000000
v -0.67400000 -0.41400000 1.00000000
v -0.67400000 0.41400000 -1.00000000
v -0.67400000 0.41400000 1.00000000
v 0.67400000 -0.41400000 -1.00000000
v 0.67400000 -0.41400000 1.00000000
v 0.67400000 0.41400000 -1.00000000
v 0.67400000 0.41400000 1.00000000
vt 0.0000000e+0 0.13628472
vt 0.0000000e+0 0.62474153
vt 0.0000000e+0 1.00000000
vt 2.7755576e-17 0.83561752
vt 0.13333601 0.21789916
vt 0.13333601 0.57822143
vt 0.26079495 0.83561752
vt 0.30661214 0.0000000e+0
vt 0.39032412 0.18833446
vt 0.39032412 0.67542597
vt 0.39032412 0.39705912
vt 0.39032412 0.0000000e+0
vt 0.39705912 1.00000000
vt 0.39705912 0.83561752
vt 0.65794197 0.39705912
vt 0.65794197 0.0000000e+0
vn -0.57735027 -0.57735027 -0.57735027
vn -0.57735027 -0.57735027 0.57735027
vn -0.57735027 0.57735027 -0.57735027
vn -0.57735027 0.57735027 0.57735027
vn 0.57735027 -0.57735027 -0.57735027
vn 0.57735027 -0.57735027 0.57735027
vn 0.57735027 0.57735027 -0.57735027
vn 0.57735027 0.57735027 0.57735027
g Cube1_Cube1_auv
usemtl Cube1_auv
s 1
f 1/15/1 5/11/5 6/12/6 2/16/2
f 2/1/2 4/5/4 3/6/3 1/2/1
f 2/1/2 6/8/6 8/9/8 4/5/4
f 3/6/3 7/10/7 5/7/5 1/2/1
f 4/5/4 8/9/8 7/10/7 3/6/3
f 5/14/5 7/13/7 8/3/8 6/4/6
