# Blender v2.76 (sub 0) OBJ File: 'tiles3.blend'
# www.blender.org
o street_x_Cube.007
v -0.350000 0.010000 0.500000
v -0.350000 0.010000 0.350000
v 0.350000 0.010000 0.500000
v 0.350000 0.010000 0.350000
v -0.350000 0.020000 0.500000
v -0.350000 0.020000 0.350000
v -0.400000 0.020000 0.500000
v -0.400000 0.020000 0.400000
v -0.400000 -0.020000 0.500000
v -0.400000 -0.020000 0.400000
v 0.350000 0.020000 0.500000
v 0.400000 0.020000 0.500000
v 0.400000 0.020000 0.400000
v 0.400000 -0.020000 0.500000
v 0.400000 -0.020000 0.400000
v 0.400000 0.020000 -0.400000
v 0.400000 0.020000 -0.500000
v -0.500000 0.010000 0.350000
v 0.350000 0.020000 -0.350000
v 0.350000 0.020000 -0.500000
v -0.350000 0.010000 -0.350000
v -0.350000 0.010000 -0.500000
v 0.350000 0.010000 -0.350000
v 0.350000 0.010000 -0.500000
v -0.500000 0.020000 0.350000
v -0.500000 0.020000 0.400000
v -0.500000 -0.020000 0.400000
v 0.500000 -0.020000 0.400000
v 0.500000 0.020000 0.400000
v 0.500000 0.020000 0.350000
v 0.350000 0.020000 0.350000
v 0.500000 0.010000 0.350000
v 0.050000 0.010000 0.420000
v 0.300000 0.010000 0.420000
v 0.300000 0.010000 0.380000
v 0.050000 0.010000 0.380000
v -0.500000 0.010000 -0.010000
v -0.500000 0.010000 0.010000
v 0.500000 0.010000 -0.010000
v 0.500000 0.010000 0.010000
v -0.416667 0.010000 -0.010000
v -0.333333 0.010000 -0.010000
v -0.250000 0.010000 -0.010000
v -0.166667 0.010000 -0.010000
v -0.083333 0.010000 -0.010000
v 0.000000 0.010000 -0.010000
v 0.083333 0.010000 -0.010000
v 0.166667 0.010000 -0.010000
v 0.400000 -0.020000 -0.500000
v 0.400000 -0.020000 -0.400000
v -0.350000 0.020000 -0.500000
v -0.400000 0.020000 -0.500000
v -0.400000 0.020000 -0.400000
v -0.400000 -0.020000 -0.500000
v -0.400000 -0.020000 -0.400000
v 0.500000 0.010000 -0.350000
v 0.500000 0.020000 -0.350000
v 0.500000 0.020000 -0.400000
v 0.500000 -0.020000 -0.400000
v -0.500000 -0.020000 -0.400000
v -0.500000 0.020000 -0.400000
v -0.500000 0.020000 -0.350000
v -0.350000 0.020000 -0.350000
v -0.500000 0.010000 -0.350000
v -0.300000 0.010000 -0.380000
v -0.050000 0.010000 -0.380000
v -0.050000 0.010000 -0.420000
v -0.300000 0.010000 -0.420000
v 0.250000 0.010000 -0.010000
v 0.333333 0.010000 -0.010000
v 0.416667 0.010000 -0.010000
v -0.416667 0.010000 0.010000
v -0.333333 0.010000 0.010000
v -0.250000 0.010000 0.010000
v -0.166667 0.010000 0.010000
v -0.083333 0.010000 0.010000
v 0.000000 0.010000 0.010000
v 0.083333 0.010000 0.010000
v 0.166667 0.010000 0.010000
v 0.250000 0.010000 0.010000
v 0.333333 0.010000 0.010000
v 0.416667 0.010000 0.010000
vt 0.102818 0.397059
vt 0.096031 0.388151
vt 0.097728 0.387727
vt 0.090729 0.393453
vt 0.090446 0.409431
vt 0.088679 0.411198
vt 0.082882 0.402573
vt 0.101051 0.398826
vt 0.099283 0.400594
vt 0.090870 0.409855
vt 0.097728 0.417420
vt 0.089103 0.411623
vt 0.104586 0.395291
vt 0.106353 0.393524
vt 0.094547 0.420601
vt 0.087335 0.413390
vt 0.086911 0.412966
vt 0.079700 0.405755
vt 0.100909 0.384545
vt 0.108120 0.391757
vt 0.112574 0.402573
vt 0.105010 0.395716
vt 0.106777 0.393948
vt 0.115756 0.399392
vt 0.108545 0.392181
vt 0.075142 0.481137
vt 0.111575 0.481116
vt 0.111578 0.481752
vt 0.075145 0.481772
vt 0.111579 0.483574
vt 0.075146 0.483594
vt 0.111580 0.485031
vt 0.075147 0.485051
vt 0.111582 0.453197
vt 0.075151 0.453171
vt 0.075152 0.451714
vt 0.111583 0.451739
vt 0.111583 0.455654
vt 0.075152 0.455629
vt 0.075150 0.454993
vt 0.111581 0.455018
vt 0.321695 0.532709
vt 0.371409 0.532709
vt 0.371409 0.524755
vt 0.321695 0.524755
vt 0.095183 0.387303
vt 0.094547 0.384545
vt 0.089881 0.392605
vt 0.079700 0.399392
vt 0.364123 0.525757
vt 0.343410 0.525757
vt 0.343410 0.520786
vt 0.364123 0.520786
vt 0.103242 0.397483
vt 0.101475 0.399251
vt 0.099707 0.401018
vt 0.094405 0.406320
vt 0.092638 0.408088
vt 0.092214 0.407663
vt 0.093981 0.405896
vt 0.364123 0.530736
vt 0.343410 0.530736
vt 0.099425 0.416996
vt 0.100273 0.417844
vt 0.100909 0.420601
vt 0.105575 0.412542
vt 0.115756 0.405755
vt 0.104727 0.411693
vt 0.322698 0.530736
vt 0.322698 0.525766
vt 0.096173 0.404553
vt 0.095748 0.404129
vt 0.364123 0.535716
vt 0.343410 0.535716
vt 0.322698 0.520786
vt 0.322698 0.535716
vt 0.097516 0.402361
vt 0.097940 0.402785
vn 0.000000 1.000000 -0.000000
vn 1.000000 0.000000 0.000000
vn -1.000000 0.000000 0.000000
vn 0.000000 0.000000 -1.000000
vn 0.000000 0.000000 1.000000
s off
f 80/1/1 35/2/1 4/3/1
f 36/4/1 35/2/1 80/1/1
f 73/5/1 72/6/1 2/7/1
f 36/4/1 80/1/1 79/8/1
f 78/9/1 36/4/1 79/8/1
f 42/10/1 21/11/1 41/12/1
f 80/1/1 4/3/1 81/13/1
f 81/13/1 4/3/1 82/14/1
f 41/12/1 21/11/1 64/15/1 37/16/1
f 38/17/1 18/18/1 2/7/1 72/6/1
f 82/14/1 4/3/1 32/19/1 40/20/1
f 23/21/1 70/22/1 71/23/1
f 56/24/1 23/21/1 71/23/1 39/25/1
f 1/26/2 2/27/2 6/28/2 5/29/2
f 5/29/1 6/28/1 8/30/1 7/31/1
f 7/31/3 8/30/3 10/32/3 9/33/3
f 13/34/2 12/35/2 14/36/2 15/37/2
f 61/34/4 53/35/4 55/36/4 60/37/4
f 20/29/1 19/28/1 16/30/1 17/31/1
f 24/26/3 23/27/3 19/28/3 20/29/3
f 4/38/3 3/39/3 11/40/3 31/41/3
f 31/41/1 11/40/1 12/35/1 13/34/1
f 2/38/4 18/39/4 25/40/4 6/41/4
f 6/41/1 25/40/1 26/35/1 8/34/1
f 8/34/5 26/35/5 27/36/5 10/37/5
f 29/34/5 13/35/5 15/36/5 28/37/5
f 30/41/1 31/40/1 13/35/1 29/34/1
f 32/38/4 4/39/4 31/40/4 30/41/4
f 33/42/1 34/43/1 35/44/1 36/45/1
f 4/3/1 35/2/1 34/46/1 3/47/1
f 34/46/1 33/48/1 1/49/1 3/47/1
f 1/49/1 33/48/1 36/4/1 2/7/1
f 16/34/4 58/35/4 59/36/4 50/37/4
f 19/41/1 57/40/1 58/35/1 16/34/1
f 39/25/1 71/23/1 82/14/1 40/20/1
f 43/50/1 42/51/1 73/52/1 74/53/1
f 69/54/1 48/55/1 79/8/1 80/1/1
f 48/55/1 47/56/1 78/9/1 79/8/1
f 21/38/2 22/39/2 51/40/2 63/41/2
f 44/57/1 43/58/1 74/59/1 75/60/1
f 63/41/1 51/40/1 52/35/1 53/34/1
f 53/34/3 52/35/3 54/36/3 55/37/3
f 17/31/2 16/30/2 50/32/2 49/33/2
f 23/38/5 56/39/5 57/40/5 19/41/5
f 62/41/1 63/40/1 53/35/1 61/34/1
f 64/38/5 21/39/5 63/40/5 62/41/5
f 65/42/1 66/43/1 67/44/1 68/45/1
f 47/61/1 46/62/1 77/51/1 78/50/1
f 21/11/1 65/63/1 68/64/1 22/65/1
f 68/64/1 67/66/1 24/67/1 22/65/1
f 24/67/1 67/66/1 66/68/1 23/21/1
f 46/62/1 45/69/1 76/70/1 77/51/1
f 45/71/1 44/57/1 75/60/1 76/72/1
f 71/73/1 70/74/1 81/62/1 82/61/1
f 42/51/1 41/70/1 72/75/1 73/52/1
f 41/12/1 37/16/1 38/17/1 72/6/1
f 70/74/1 69/76/1 80/69/1 81/62/1
f 78/9/1 77/77/1 36/4/1
f 77/77/1 76/72/1 36/4/1
f 73/5/1 2/7/1 36/4/1
f 74/59/1 73/5/1 36/4/1
f 75/60/1 74/59/1 36/4/1
f 76/72/1 75/60/1 36/4/1
f 42/10/1 43/58/1 21/11/1
f 65/63/1 21/11/1 43/58/1
f 66/68/1 65/63/1 43/58/1
f 43/58/1 44/57/1 66/68/1
f 45/71/1 66/68/1 44/57/1
f 46/78/1 66/68/1 45/71/1
f 47/56/1 66/68/1 46/78/1
f 70/22/1 23/21/1 66/68/1
f 70/22/1 66/68/1 69/54/1
f 69/54/1 66/68/1 48/55/1
f 48/55/1 66/68/1 47/56/1
