# Blender v2.76 (sub 0) OBJ File: 'tiles3.blend'
# www.blender.org
o street_long_Cube.009
v -0.350000 0.010000 0.500000
v -0.350000 0.010000 -0.500000
v 0.350000 0.010000 0.500000
v 0.350000 0.010000 -0.500000
v -0.350000 0.020000 0.500000
v -0.350000 0.020000 -0.500000
v -0.400000 0.020000 0.500000
v -0.400000 0.020000 -0.500000
v -0.400000 -0.020000 0.500000
v -0.400000 -0.020000 -0.500000
v 0.350000 0.020000 0.500000
v 0.350000 0.020000 -0.500000
v 0.400000 0.020000 0.500000
v 0.400000 0.020000 -0.500000
v 0.400000 -0.020000 0.500000
v 0.400000 -0.020000 -0.500000
v -0.010000 0.010000 0.500000
v 0.010000 0.010000 0.500000
v -0.010000 0.010000 -0.500000
v 0.010000 0.010000 -0.500000
v -0.010000 0.010000 0.416667
v -0.010000 0.010000 0.333333
v -0.010000 0.010000 0.250000
v -0.010000 0.010000 0.166667
v -0.010000 0.010000 0.083333
v -0.010000 0.010000 -0.000000
v -0.010000 0.010000 -0.083333
v -0.010000 0.010000 -0.166667
v -0.010000 0.010000 -0.250000
v -0.010000 0.010000 -0.333333
v -0.010000 0.010000 -0.416667
v 0.010000 0.010000 0.416667
v 0.010000 0.010000 0.333333
v 0.010000 0.010000 0.250000
v 0.010000 0.010000 0.166667
v 0.010000 0.010000 0.083333
v 0.010000 0.010000 -0.000000
v 0.010000 0.010000 -0.083333
v 0.010000 0.010000 -0.166667
v 0.010000 0.010000 -0.250000
v 0.010000 0.010000 -0.333333
v 0.010000 0.010000 -0.416667
vt 0.075142 0.481137
vt 0.111575 0.481116
vt 0.111578 0.481752
vt 0.075145 0.481772
vt 0.111579 0.483574
vt 0.075146 0.483594
vt 0.111580 0.485031
vt 0.075147 0.485051
vt 0.111583 0.455654
vt 0.075152 0.455629
vt 0.075150 0.454993
vt 0.111581 0.455018
vt 0.075151 0.453171
vt 0.111582 0.453197
vt 0.075152 0.451714
vt 0.111583 0.451739
vt 0.069634 0.421384
vt 0.069628 0.407065
vt 0.073141 0.407065
vt 0.076655 0.407065
vt 0.080169 0.407065
vt 0.083681 0.407065
vt 0.087194 0.407066
vt 0.090710 0.407069
vt 0.094237 0.407076
vt 0.097837 0.407118
vt 0.101362 0.407031
vt 0.104544 0.406975
vt 0.107824 0.406956
vt 0.111570 0.407064
vt 0.111747 0.421366
vt 0.069628 0.406222
vt 0.069626 0.391883
vt 0.111810 0.391883
vt 0.111662 0.406013
vt 0.107802 0.406145
vt 0.104508 0.406231
vt 0.101346 0.406272
vt 0.097875 0.406197
vt 0.094239 0.406221
vt 0.090710 0.406223
vt 0.087195 0.406223
vt 0.083682 0.406222
vt 0.080169 0.406222
vt 0.076655 0.406221
vt 0.073141 0.406221
vt 0.369885 0.533068
vt 0.344554 0.533068
vt 0.344554 0.526989
vt 0.369885 0.526989
vt 0.319223 0.533068
vt 0.319223 0.526989
vt 0.369885 0.539158
vt 0.344554 0.539158
vt 0.319223 0.539158
vt 0.344554 0.520899
vt 0.369885 0.520899
vt 0.319223 0.520899
vn 1.000000 0.000000 0.000000
vn 0.000000 1.000000 0.000000
vn -1.000000 0.000000 0.000000
s off
f 1/1/1 2/2/1 6/3/1 5/4/1
f 5/4/2 6/3/2 8/5/2 7/6/2
f 7/6/3 8/5/3 10/7/3 9/8/3
f 4/9/3 3/10/3 11/11/3 12/12/3
f 12/12/2 11/11/2 13/13/2 14/14/2
f 14/14/1 13/13/1 15/15/1 16/16/1
f 1/17/2 17/18/2 21/19/2 22/20/2 23/21/2 24/22/2 25/23/2 26/24/2 27/25/2 28/26/2 29/27/2 30/28/2 31/29/2 19/30/2 2/31/2
f 18/32/2 3/33/2 4/34/2 20/35/2 42/36/2 41/37/2 40/38/2 39/39/2 38/40/2 37/41/2 36/42/2 35/43/2 34/44/2 33/45/2 32/46/2
f 21/19/2 17/18/2 18/32/2 32/46/2
f 19/30/2 31/29/2 42/36/2 20/35/2
f 31/47/2 30/48/2 41/49/2 42/50/2
f 30/48/2 29/51/2 40/52/2 41/49/2
f 29/27/2 28/26/2 39/39/2 40/38/2
f 28/26/2 27/25/2 38/40/2 39/39/2
f 27/53/2 26/54/2 37/48/2 38/47/2
f 26/54/2 25/55/2 36/51/2 37/48/2
f 25/23/2 24/22/2 35/43/2 36/42/2
f 24/22/2 23/21/2 34/44/2 35/43/2
f 23/50/2 22/49/2 33/56/2 34/57/2
f 22/49/2 21/52/2 32/58/2 33/56/2
