# Blender v2.76 (sub 0) OBJ File: 'tiles3.blend'
# www.blender.org
o ObCliffInner_MeCliffInner
v -0.500000 0.000000 0.500000
v -0.330000 0.208000 0.500000
v -0.230000 0.424000 0.500000
v -0.500000 0.424000 0.230000
v -0.500000 0.208000 0.330000
v -0.325166 0.451493 0.373493
v -0.157375 0.428177 0.388436
v -0.418900 0.429015 0.251217
v -0.333747 0.186292 0.310570
v 0.500000 0.400000 0.500000
v -0.500000 0.400000 -0.500000
v 0.500000 0.400000 -0.500000
v 0.100000 0.400000 0.500000
v -0.500000 0.400000 -0.100000
v 0.250000 0.400000 -0.500000
v 0.000000 0.400000 -0.500000
v -0.250000 0.400000 -0.500000
v 0.500000 0.400000 0.250000
v 0.500000 0.400000 0.000000
v 0.500000 0.400000 -0.250000
v 0.094818 0.400000 -0.104939
v 0.123493 0.400000 0.099519
v 0.250000 0.400000 0.250000
v -0.047229 0.400000 -0.209518
v -0.273615 0.400000 -0.140361
v -0.500000 0.080000 0.400000
v -0.400000 0.080000 0.500000
v -0.290000 0.300000 0.500000
v -0.500000 0.300000 0.300000
v -0.429022 0.295884 0.354782
v -0.367845 0.333620 0.465835
v -0.414258 0.352481 0.424009
v -0.455665 0.101269 0.449932
v -0.050000 0.408000 0.500000
v -0.500000 0.408000 0.050000
v -0.123725 0.424218 0.069675
v -0.329103 0.425846 0.008393
v -0.009548 0.427677 0.206547
v 0.028830 0.393585 0.276128
v -0.102075 0.430379 0.157147
vt 0.277606 0.924954
vt 0.278432 0.919173
vt 0.283609 0.925600
vt 0.284699 0.913199
vt 0.283046 0.924759
vt 0.273555 0.922691
vt 0.275885 0.910725
vt 0.277821 0.904660
vt 0.296346 0.904331
vt 0.296346 0.914045
vt 0.284158 0.904060
vt 0.098408 0.907850
vt 0.096361 0.909898
vt 0.092267 0.905803
vt 0.284256 0.919597
vt 0.088172 0.918087
vt 0.084078 0.922181
vt 0.082030 0.920134
vt 0.090219 0.911945
vt 0.092267 0.909898
vt 0.092267 0.913992
vt 0.086125 0.916039
vt 0.098408 0.916039
vt 0.096361 0.918087
vt 0.102503 0.920134
vt 0.100456 0.922181
vt 0.094314 0.911945
vt 0.104550 0.918087
vt 0.100456 0.913992
vt 0.084078 0.913992
vt 0.079983 0.918087
vt 0.284902 0.913593
vt 0.088172 0.909898
vt 0.086125 0.907850
vt 0.090219 0.903756
vt 0.094314 0.903756
vt 0.082030 0.911945
vt 0.092267 0.897614
vt 0.088172 0.901709
vt 0.077936 0.916039
vt 0.283618 0.894921
vt 0.296346 0.894618
vt 0.267071 0.908250
vt 0.270942 0.896121
vt 0.264064 0.920623
vt 0.271602 0.924307
vt 0.273255 0.912747
vt 0.102503 0.911945
vt 0.106597 0.916039
vn -0.436000 0.545000 0.716200
vn -0.916700 0.398600 -0.027500
vn -0.650100 -0.617300 0.443000
vn 0.149900 0.306500 0.940000
vn -0.450200 -0.641800 0.620800
vn 0.000000 1.000000 0.000000
vn -0.733200 0.531000 0.424800
vn 0.088100 0.991600 0.094500
vn 0.052300 0.997700 -0.043400
vn 0.327600 0.907200 0.263800
vn -0.148300 0.986600 -0.067700
vn -0.038400 0.995300 -0.088500
vn 0.031100 0.996500 -0.077900
vn 0.076400 0.993100 -0.088900
vn -0.116400 0.991800 -0.052900
vn 0.053100 0.987000 -0.151700
vn 0.024500 0.903000 0.428900
vn 0.053200 0.997500 -0.045500
vn -0.773000 0.304400 0.556600
vn -0.985100 0.145700 0.091000
vn -0.541200 0.413400 0.732300
vn -0.014300 0.464600 0.885400
vn -0.336700 0.162900 0.927400
vn -0.627600 0.774800 -0.076400
vn -0.521000 -0.673400 0.524500
vn -0.485000 -0.655300 0.579100
vn 0.183400 0.983000 0.001300
vn 0.026200 0.997200 -0.070300
vn -0.117200 0.991500 -0.056300
vn 0.183700 0.982600 -0.025800
vn -0.032600 0.982600 -0.182900
vn -0.028800 0.995100 -0.094200
vn 0.122500 0.987100 -0.103000
vn 0.054200 0.996100 -0.070400
vn -0.031200 0.999300 -0.018700
vn 0.172400 0.766600 0.618500
vn -0.609100 0.718900 0.334800
vn -0.235900 0.607800 0.758200
vn -0.164600 0.817800 0.551500
vn -0.477100 0.833300 -0.279400
vn -0.567400 0.310300 0.762700
vn 0.128100 0.986600 0.101400
vn 0.052900 0.996000 -0.071900
s off
f 27/1/1 33/2/1 1/3/1
f 9/4/2 2/5/2 28/6/2
f 31/7/3 32/8/3 9/4/3
f 29/9/4 5/10/4 9/4/4
f 32/8/5 30/11/5 9/4/5
f 16/12/6 24/13/6 21/14/6
f 33/2/7 26/15/7 1/3/7
f 7/16/8 3/17/8 34/18/8
f 38/19/9 40/20/9 6/21/9
f 39/22/10 38/19/10 7/16/10
f 37/23/11 8/24/11 6/21/11
f 35/25/12 4/26/12 8/24/12
f 36/27/13 37/23/13 40/20/13
f 40/20/14 38/19/14 36/27/14
f 14/28/15 35/25/15 37/23/15
f 25/29/16 37/23/16 36/27/16
f 38/19/17 39/22/17 23/30/17
f 39/22/18 34/18/18 13/31/18
f 5/32/19 26/15/19 33/2/19
f 21/14/6 22/33/6 19/34/6
f 20/35/6 15/36/6 21/14/6
f 22/33/6 23/30/6 18/37/6
f 12/38/6 15/36/6 20/39/6
f 23/30/6 13/31/6 10/40/6
f 8/41/20 30/11/20 32/8/20
f 4/42/21 29/9/21 30/11/21
f 7/43/22 6/44/22 32/8/22
f 31/7/23 28/6/23 3/45/23
f 2/46/24 9/47/24 33/2/24
f 16/12/6 17/48/6 25/29/6
f 11/49/6 14/28/6 25/29/6
f 31/7/25 9/4/25 28/6/25
f 30/11/26 29/9/26 9/4/26
f 15/36/6 16/12/6 21/14/6
f 39/22/27 7/16/27 34/18/27
f 37/23/28 6/21/28 40/20/28
f 37/23/29 35/25/29 8/24/29
f 38/19/30 22/33/30 21/14/30
f 25/29/31 14/28/31 37/23/31
f 24/13/32 25/29/32 36/27/32
f 22/33/33 38/19/33 23/30/33
f 38/19/34 21/14/34 36/27/34
f 23/30/35 39/22/35 13/31/35
f 9/47/36 5/32/36 33/2/36
f 20/35/6 21/14/6 19/34/6
f 19/34/6 22/33/6 18/37/6
f 18/37/6 23/30/6 10/40/6
f 6/44/37 8/41/37 32/8/37
f 8/41/38 4/42/38 30/11/38
f 31/7/39 7/43/39 32/8/39
f 7/43/40 31/7/40 3/45/40
f 27/1/41 2/46/41 33/2/41
f 24/13/6 16/12/6 25/29/6
f 17/48/6 11/49/6 25/29/6
f 38/19/42 6/21/42 7/16/42
f 21/14/43 24/13/43 36/27/43
