# Blender v2.76 (sub 0) OBJ File: 'tiles3.blend'
# www.blender.org
o ObCliffOuter_MeCliffOuter
v 0.500000 0.400000 -0.500000
v -0.500000 0.000000 -0.500000
v 0.500000 0.000000 0.500000
v -0.540210 -0.019877 0.600222
v 0.100000 0.400000 -0.500000
v -0.230000 0.424000 -0.500000
v -0.330000 0.208000 -0.500000
v 0.500000 0.208000 0.330000
v 0.500000 0.424000 0.230000
v 0.500000 0.400000 -0.100000
v -0.326552 -0.014693 0.524325
v 0.021437 -0.019695 0.603093
v 0.262226 -0.020688 0.546317
v -0.598176 -0.035774 -0.221220
v -0.519890 -0.005754 -0.014291
v -0.637080 -0.020956 0.222097
v -0.269130 0.227246 0.315439
v -0.241431 0.252545 -0.075773
v -0.250000 0.200000 -0.250000
v -0.005268 0.168274 0.358695
v -0.096626 0.448220 -0.017496
v -0.225582 0.416554 -0.200959
v 0.312590 0.262933 0.241901
v 0.159203 0.420946 0.234918
v 0.215543 0.408658 -0.195007
v -0.400000 0.080000 -0.500000
v -0.050000 0.408000 -0.500000
v -0.290000 0.300000 -0.500000
v 0.500000 0.080000 0.400000
v 0.500000 0.300000 0.290000
v 0.500000 0.408000 0.050000
v -0.203156 0.099419 0.410574
v -0.077531 0.095221 0.340639
v -0.058137 0.301316 0.170313
v 0.230000 0.400000 -0.380000
v 0.123491 0.099333 0.462528
v 0.250000 0.300000 0.125000
v 0.289538 0.460855 0.092552
v -0.375000 0.100000 0.250000
v -0.337535 0.080733 0.029661
v -0.381760 0.162354 -0.245265
v -0.122830 0.311968 -0.086366
v -0.188633 0.288374 -0.302772
v 0.072648 0.417976 -0.255024
v 0.390000 0.400000 -0.130000
v -0.298049 0.322774 0.199015
v -0.422223 0.109473 0.398847
vt 0.102403 0.905541
vt 0.112539 0.925814
vt 0.092267 0.915677
vt 0.261476 0.912732
vt 0.259366 0.909746
vt 0.267515 0.908493
vt 0.271730 0.916747
vt 0.275009 0.921521
vt 0.268936 0.925698
vt 0.082130 0.905541
vt 0.092267 0.905541
vt 0.277458 0.896438
vt 0.280174 0.893722
vt 0.280174 0.899365
vt 0.273647 0.904133
vt 0.271378 0.901163
vt 0.265369 0.905509
vt 0.288970 0.901163
vt 0.286701 0.904133
vt 0.277846 0.912489
vt 0.281109 0.910105
vt 0.281109 0.917366
vt 0.294979 0.905509
vt 0.292832 0.908493
vt 0.284373 0.912489
vt 0.290489 0.916747
vt 0.287210 0.921521
vt 0.092267 0.895405
vt 0.300982 0.909746
vt 0.298872 0.912732
vt 0.296546 0.920955
vt 0.293283 0.925698
vt 0.112539 0.895405
vt 0.112539 0.905541
vt 0.282889 0.896438
vt 0.285605 0.893510
vt 0.287637 0.907613
vt 0.092267 0.885269
vt 0.112539 0.885269
vt 0.293768 0.911973
vt 0.299808 0.916211
vt 0.297126 0.902524
vt 0.303092 0.906761
vt 0.071994 0.885269
vt 0.268451 0.911973
vt 0.274582 0.907613
vt 0.281109 0.902845
vt 0.291239 0.898193
vt 0.263222 0.902524
vt 0.269109 0.898193
vt 0.274743 0.893510
vt 0.280174 0.888079
vt 0.082130 0.925814
vt 0.092267 0.925814
vt 0.071994 0.905541
vt 0.265673 0.920955
vt 0.071994 0.925814
vt 0.262411 0.916211
vt 0.257256 0.906761
vn 0.000000 1.000000 0.000000
vn -0.841300 0.460100 0.283900
vn -0.959300 -0.282200 0.007100
vn 0.081800 0.995800 -0.040200
vn -0.673400 0.692900 -0.257700
vn -0.880500 0.473000 -0.031800
vn -0.273700 0.924500 -0.265400
vn -0.176300 -0.068400 0.982000
vn -0.775300 0.397300 -0.491000
vn -0.798000 -0.142500 0.585500
vn -0.030100 0.815100 0.578600
vn 0.111400 -0.621300 0.775600
vn 0.153000 0.964700 -0.214500
vn 0.167900 0.473000 0.864900
vn -0.510800 0.374500 0.773900
vn 0.014500 0.998500 -0.053300
vn 0.141800 0.793600 0.591700
vn -0.016000 0.591600 0.806000
vn -0.005200 0.708800 0.705400
vn 0.139100 0.826900 0.544900
vn 0.207600 0.963400 -0.169700
vn 0.125800 0.969900 -0.208400
vn -0.010200 0.996000 -0.088500
vn -0.299800 0.380400 0.874900
vn 0.053700 0.779700 0.623800
vn 0.002900 0.992200 -0.124200
vn 0.045200 0.959000 0.279800
vn -0.518400 -0.002300 0.855100
vn -0.762000 0.626700 0.163400
vn -0.917500 -0.387500 -0.090000
vn 0.211200 0.922100 0.324100
vn -0.622100 0.717600 0.313100
vn -0.397000 0.907300 -0.138400
vn -0.601100 0.784600 0.151800
vn 0.058400 0.995900 -0.069800
vn 0.053200 0.996900 -0.057600
vn -0.011100 0.999300 -0.035100
vn -0.644400 0.668800 0.370600
vn -0.674900 0.715000 -0.182800
vn 0.065000 0.997000 -0.041600
vn -0.401500 0.903900 -0.147300
vn -0.808900 0.391400 0.438800
vn -0.708600 0.682200 -0.180100
vn -0.743900 0.598600 0.297400
vn 0.377900 0.670300 0.638600
vn -0.824400 -0.478200 0.302800
vn -0.500100 0.293300 0.814800
vn -0.516700 0.619800 0.590700
vn -0.032300 0.815900 0.577300
vn 0.016700 -0.665600 0.746200
vn 0.197800 0.768000 0.609200
vn 0.072300 0.779800 0.621900
vn 0.304900 0.807200 0.505400
vn -0.279000 0.862200 0.422800
vn 0.154100 0.679100 0.717700
vn -0.031600 0.988400 -0.148400
vn -0.087300 0.977100 0.194000
vn -0.028200 0.812800 0.581900
vn 0.091100 0.924400 0.370400
vn -0.452000 0.859900 -0.237100
vn -0.448100 0.839600 -0.306900
vn -0.131000 0.767400 0.627700
vn -0.435000 0.899800 0.034000
vn -0.395900 0.899900 -0.182900
vn 0.088500 0.995800 0.023500
vn -0.876900 0.381300 0.292800
vn -0.620300 0.775300 -0.118900
vn -0.273100 0.920900 -0.278200
s off
f 45/1/1 1/2/1 35/3/1
f 7/4/2 26/5/2 19/6/2
f 43/7/3 22/8/3 6/9/3
f 44/10/4 25/11/4 35/3/4
f 39/12/5 47/13/5 17/14/5
f 17/14/6 18/15/6 40/16/6
f 18/15/7 19/6/7 41/17/7
f 33/18/8 20/19/8 17/14/8
f 42/20/9 46/21/9 21/22/9
f 42/20/10 21/22/10 22/8/10
f 36/23/11 23/24/11 20/19/11
f 34/25/12 37/26/12 24/27/12
f 44/10/13 38/28/13 25/11/13
f 36/23/14 29/29/14 8/30/14
f 37/26/15 30/31/15 9/32/15
f 45/1/16 31/33/16 10/34/16
f 46/21/17 34/25/17 21/22/17
f 47/13/18 32/35/18 17/14/18
f 11/36/19 32/35/19 47/13/19
f 20/37/20 34/25/20 46/21/20
f 38/28/21 31/33/21 45/1/21
f 38/28/22 45/1/22 25/11/22
f 24/38/23 9/39/23 31/33/23
f 23/40/24 8/41/24 30/31/24
f 13/42/25 3/43/25 29/29/25
f 38/28/26 44/10/26 21/44/26
f 23/40/27 37/26/27 34/25/27
f 13/42/28 36/23/28 33/18/28
f 42/20/29 43/7/29 19/45/29
f 18/46/30 17/47/30 46/21/30
f 12/48/31 33/18/31 32/35/31
f 40/16/32 41/17/32 14/49/32
f 15/50/33 16/51/33 40/16/33
f 16/51/34 4/52/34 47/13/34
f 44/10/35 35/3/35 27/53/35
f 27/53/36 35/3/36 5/54/36
f 22/55/37 44/10/37 27/53/37
f 19/45/38 43/7/38 28/56/38
f 14/49/39 41/17/39 26/5/39
f 25/11/40 45/1/40 35/3/40
f 45/1/1 10/34/1 1/2/1
f 1/2/1 5/54/1 35/3/1
f 16/51/41 39/12/41 40/16/41
f 28/56/42 43/7/42 6/9/42
f 39/12/43 17/14/43 40/16/43
f 40/16/44 18/15/44 41/17/44
f 32/35/45 33/18/45 17/14/45
f 43/7/46 42/20/46 22/8/46
f 33/18/47 36/23/47 20/19/47
f 21/22/48 34/25/48 24/27/48
f 23/24/49 36/23/49 8/30/49
f 24/27/50 37/26/50 9/32/50
f 4/52/51 11/36/51 47/13/51
f 17/47/52 20/37/52 46/21/52
f 38/28/53 24/38/53 31/33/53
f 37/26/54 23/40/54 30/31/54
f 36/23/55 13/42/55 29/29/55
f 22/55/56 21/44/56 44/10/56
f 24/38/57 38/28/57 21/44/57
f 20/37/58 23/40/58 34/25/58
f 12/48/59 13/42/59 33/18/59
f 18/46/60 42/20/60 19/45/60
f 42/20/61 18/46/61 46/21/61
f 11/36/62 12/48/62 32/35/62
f 15/50/63 40/16/63 14/49/63
f 39/12/64 16/51/64 47/13/64
f 6/57/65 22/55/65 27/53/65
f 7/58/66 19/45/66 28/56/66
f 2/59/67 14/49/67 26/5/67
f 26/5/68 41/17/68 19/6/68
