# Exported from Wings 3D 1.5.4
mtllib wheel.mtl
o Cylinder2
#32 vertices, 18 faces
v 1.8005122e-16 0.50000000 1.0000000e-1
v 0.19134172 0.46193977 1.0000000e-1
v 0.35355339 0.35355339 1.0000000e-1
v 0.46193977 0.19134172 1.0000000e-1
v 0.50000000 2.4985050e-17 1.0000000e-1
v 0.46193977 -0.19134172 1.0000000e-1
v 0.35355339 -0.35355339 1.0000000e-1
v 0.19134172 -0.46193977 1.0000000e-1
v 3.1097375e-16 -0.50000000 1.0000000e-1
v -0.19134172 -0.46193977 0.10000000
v -0.35355339 -0.35355339 1.0000000e-1
v -0.46193977 -0.19134172 0.10000000
v -0.50000000 2.4985050e-17 1.0000000e-1
v -0.46193977 0.19134172 1.0000000e-1
v -0.35355339 0.35355339 1.0000000e-1
v -0.19134172 0.46193977 1.0000000e-1
v 2.9578813e-16 0.50000000 -1.0000000e-1
v 0.19134172 0.46193977 -0.10000000
v 0.35355339 0.35355339 -1.0000000e-1
v 0.46193977 0.19134172 -0.10000000
v 0.50000000 9.7994292e-18 -1.0000000e-1
v 0.46193977 -0.19134172 -1.0000000e-1
v 0.35355339 -0.35355339 -1.0000000e-1
v 0.19134172 -0.46193977 -1.0000000e-1
v 2.9578813e-16 -0.50000000 -1.0000000e-1
v -0.19134172 -0.46193977 -1.0000000e-1
v -0.35355339 -0.35355339 -1.0000000e-1
v -0.46193977 -0.19134172 -1.0000000e-1
v -0.50000000 9.7994292e-18 -1.0000000e-1
v -0.46193977 0.19134172 -1.0000000e-1
v -0.35355339 0.35355339 -1.0000000e-1
v -0.19134172 0.46193977 -1.0000000e-1
vt 1.1555556e-3 7.2222222e-4
vt 1.1555556e-3 8.0172601e-2
vt 5.6019300e-3 0.71934251
vt 5.6019300e-3 0.71934251
vt 2.6281504e-2 0.61537927
vt 2.6281504e-2 0.82330575
vt 2.6281504e-2 0.61537927
vt 2.6281504e-2 0.82330575
vt 6.3655556e-2 7.2222222e-4
vt 6.3655556e-2 8.0172601e-2
vt 8.5171949e-2 0.91144153
vt 8.5171949e-2 0.52724349
vt 8.5171949e-2 0.52724349
vt 8.5171949e-2 0.91144153
vt 0.12615556 8.0172601e-2
vt 0.12615556 7.2222222e-4
vt 0.17330773 0.97033197
vt 0.17330773 0.46835305
vt 0.17330773 0.97033197
vt 0.17330773 0.46835305
vt 0.18865556 8.0172601e-2
vt 0.18865556 7.2222222e-4
vt 0.25115556 8.0172601e-2
vt 0.25115556 7.2222222e-4
vt 0.27727097 0.99101155
vt 0.27727097 0.44767347
vt 0.27727097 0.44767347
vt 0.27727097 0.99101155
vt 0.31365556 8.0172601e-2
vt 0.31365556 7.2222222e-4
vt 0.37615556 7.2222222e-4
vt 0.37615556 8.0172601e-2
vt 0.38123421 0.46835305
vt 0.38123421 0.46835305
vt 0.38123421 0.97033197
vt 0.38123421 0.97033197
vt 0.43865556 7.2222222e-4
vt 0.43865556 8.0172601e-2
vt 0.46936999 0.91144153
vt 0.46936999 0.52724349
vt 0.46936999 0.91144153
vt 0.46936999 0.52724349
vt 0.50115556 8.0172601e-2
vt 0.50115556 7.2222222e-4
vt 0.52826043 0.82330575
vt 0.52826043 0.61537927
vt 0.52826043 0.61537927
vt 0.52826043 0.82330575
vt 0.54894000 0.71934251
vt 0.54894000 0.71934251
vt 0.56365556 8.0172601e-2
vt 0.56365556 7.2222222e-4
vt 0.62615556 8.0172601e-2
vt 0.62615556 7.2222222e-4
vt 0.68865556 7.2222222e-4
vt 0.68865556 8.0172601e-2
vt 0.75115556 7.2222222e-4
vt 0.75115556 8.0172601e-2
vt 0.81365556 7.2222222e-4
vt 0.81365556 8.0172601e-2
vt 0.87615556 7.2222222e-4
vt 0.87615556 8.0172601e-2
vt 0.93865556 8.0172601e-2
vt 0.93865556 7.2222222e-4
vt 1.00115556 8.0172601e-2
vt 1.00115556 7.2222222e-4
vn 1.5127284e-16 0.89090915 0.45418155
vn 0.34093617 0.82309273 0.45418155
vn 0.62996790 0.62996790 0.45418155
vn 0.82309273 0.34093617 0.45418155
vn 0.89090915 2.5212141e-17 0.45418155
vn 0.82309273 -0.34093617 0.45418155
vn 0.62996790 -0.62996790 0.45418155
vn 0.34093617 -0.82309273 0.45418155
vn -1.2606070e-17 -0.89090915 0.45418155
vn -0.34093617 -0.82309273 0.45418155
vn -0.62996790 -0.62996790 0.45418155
vn -0.82309273 -0.34093617 0.45418155
vn -0.89090915 -1.6387891e-16 0.45418155
vn -0.82309273 0.34093617 0.45418155
vn -0.62996790 0.62996790 0.45418155
vn -0.34093617 0.82309273 0.45418155
vn 1.0084856e-16 0.89090915 -0.45418155
vn 0.34093617 0.82309273 -0.45418155
vn 0.62996790 0.62996790 -0.45418155
vn 0.82309273 0.34093617 -0.45418155
vn 0.89090915 -2.5212141e-17 -0.45418155
vn 0.82309273 -0.34093617 -0.45418155
vn 0.62996790 -0.62996790 -0.45418155
vn 0.34093617 -0.82309273 -0.45418155
vn -6.3030352e-17 -0.89090915 -0.45418155
vn -0.34093617 -0.82309273 -0.45418155
vn -0.62996790 -0.62996790 -0.45418155
vn -0.82309273 -0.34093617 -0.45418155
vn -0.89090915 -2.1430320e-16 -0.45418155
vn -0.82309273 0.34093617 -0.45418155
vn -0.62996790 0.62996790 -0.45418155
vn -0.34093617 0.82309273 -0.45418155
g Cylinder2_Cylinder2_auv
usemtl Cylinder2_auv
s 1
f 1/50/1 16/45/16 15/39/15 14/35/14 13/25/13 12/17/12 11/11/11 10/6/10 9/3/9 8/5/8 7/13/7 6/20/6 5/27/5 4/33/4 3/42/3 2/47/2
f 1/63/1 17/64/17 32/66/32 16/65/16
f 2/62/2 18/61/18 17/64/17 1/63/1
f 3/60/3 19/59/19 18/61/18 2/62/2
f 4/58/4 20/57/20 19/59/19 3/60/3
f 5/56/5 21/55/21 20/57/20 4/58/4
f 6/53/6 22/54/22 21/55/21 5/56/5
f 7/51/7 23/52/23 22/54/22 6/53/6
f 8/43/8 24/44/24 23/52/23 7/51/7
f 9/38/9 25/37/25 24/44/24 8/43/8
f 10/32/10 26/31/26 25/37/25 9/38/9
f 11/29/11 27/30/27 26/31/26 10/32/10
f 12/23/12 28/24/28 27/30/27 11/29/11
f 13/21/13 29/22/29 28/24/28 12/23/12
f 14/15/14 30/16/30 29/22/29 13/21/13
f 15/10/15 31/9/31 30/16/30 14/15/14
f 16/2/16 32/1/32 31/9/31 15/10/15
f 18/7/18 19/12/19 20/18/20 21/26/21 22/34/22 23/40/23 24/46/24 25/49/25 26/48/26 27/41/27 28/36/28 29/28/29 30/19/30 31/14/31 32/8/32 17/4/17
